<svg width="0" height="0" class="hidden">
    <symbol fill="none" xmlns="http://www.w3.org/2000/svg" viewBox="0 0 20 20" id="arrow">
        <path fill-rule="evenodd" clip-rule="evenodd" d="M7.09327 3.69222C7.35535 3.46759 7.74991 3.49794 7.97455 3.76001L12.9745 9.59335C13.1752 9.8274 13.1752 10.1728 12.9745 10.4068L7.97455 16.2402C7.74991 16.5023 7.35535 16.5326 7.09327 16.308C6.83119 16.0833 6.80084 15.6888 7.02548 15.4267L11.6768 10.0001L7.02548 4.5735C6.80084 4.31143 6.83119 3.91686 7.09327 3.69222Z" fill="#DEDEDE"></path>
    </symbol>
    <symbol fill="none" xmlns="http://www.w3.org/2000/svg" viewBox="0 0 25 24" id="notification">
        <circle cx="12.5" cy="12" r="10" stroke="#2750F2" stroke-width="1.5"></circle>
        <path d="M12.5 17V11" stroke="#2750F2" stroke-width="1.5" stroke-linecap="round"></path>
        <circle cx="1" cy="1" r="1" transform="matrix(1 0 0 -1 11.5 9)" fill="#2750F2"></circle>
    </symbol>
    <symbol fill="none" xmlns="http://www.w3.org/2000/svg" viewBox="0 0 36 37" id="close-menu">
        <path d="M27 9.5L9 27.5" stroke="#565656" stroke-width="3" stroke-linecap="round" stroke-linejoin="round"></path>
        <path d="M9 9.5L27 27.5" stroke="#565656" stroke-width="3" stroke-linecap="round" stroke-linejoin="round"></path>
    </symbol>
    <symbol fill="none" xmlns="http://www.w3.org/2000/svg" viewBox="0 0 20 21" id="search__mail">
        <path fill-rule="evenodd" clip-rule="evenodd" d="M2.64281 4.80981C1.6665 5.78612 1.6665 7.35747 1.6665 10.5002C1.6665 13.6429 1.6665 15.2142 2.64281 16.1905C3.61913 17.1668 5.19047 17.1668 8.33317 17.1668H11.6665C14.8092 17.1668 16.3805 17.1668 17.3569 16.1905C18.3332 15.2142 18.3332 13.6429 18.3332 10.5002C18.3332 7.35747 18.3332 5.78612 17.3569 4.80981C16.3805 3.8335 14.8092 3.8335 11.6665 3.8335H8.33317C5.19047 3.8335 3.61913 3.8335 2.64281 4.80981ZM15.48 6.76671C15.701 7.03189 15.6651 7.42599 15.4 7.64697L13.5696 9.1723C12.8309 9.78785 12.2322 10.2868 11.7039 10.6266C11.1534 10.9806 10.6174 11.2042 9.99984 11.2042C9.38227 11.2042 8.84623 10.9806 8.29582 10.6266C7.76743 10.2868 7.16876 9.78786 6.43013 9.17231L4.59972 7.64697C4.33455 7.42599 4.29872 7.03189 4.5197 6.76671C4.74068 6.50154 5.13478 6.46571 5.39995 6.68669L7.19903 8.18592C7.9765 8.83381 8.51628 9.28218 8.97199 9.57527C9.41312 9.85899 9.71228 9.95423 9.99984 9.95423C10.2874 9.95423 10.5866 9.85899 11.0277 9.57527C11.4834 9.28218 12.0232 8.83381 12.8006 8.18592L14.5997 6.68669C14.8649 6.46571 15.259 6.50154 15.48 6.76671Z" fill="#CFD7FF"></path>
    </symbol>
    <symbol fill="none" xmlns="http://www.w3.org/2000/svg" viewBox="0 0 20 21" id="search__phone">
        <path d="M8.28289 5.15165L8.85078 6.16921C9.36327 7.08751 9.15754 8.29216 8.35037 9.09932C8.35037 9.09933 8.35037 9.09932 8.35037 9.09933C8.35027 9.09943 7.3714 10.0785 9.14645 11.8535C10.9209 13.628 11.9 12.6503 11.9007 12.6496C11.9007 12.6496 11.9007 12.6496 11.9007 12.6496C12.7079 11.8425 13.9125 11.6367 14.8308 12.1492L15.8484 12.7171C17.235 13.491 17.3988 15.4356 16.1799 16.6544C15.4475 17.3868 14.5504 17.9567 13.5585 17.9943C11.8889 18.0576 9.05349 17.635 6.20924 14.7908C3.36499 11.9465 2.94244 9.11107 3.00573 7.44145C3.04333 6.44965 3.6132 5.55246 4.34558 4.82008C5.56441 3.60125 7.50903 3.76501 8.28289 5.15165Z" fill="#CFD7FF"></path>
    </symbol>
    <symbol fill="none" xmlns="http://www.w3.org/2000/svg" viewBox="0 0 20 21" id="search__discord">
        <path d="M15.6422 6.76667C14.6101 5.96666 13.3716 5.56667 12.0642 5.5L11.8578 5.70001C13.0275 5.96666 14.0597 6.49998 15.0229 7.23332C13.8532 6.63333 12.5459 6.23334 11.1697 6.1C10.7569 6.03333 10.4128 6.03333 10 6.03333C9.58717 6.03333 9.24311 6.03333 8.83028 6.1C7.45413 6.23334 6.14678 6.63333 4.97706 7.23332C5.94034 6.49998 6.97248 5.96666 8.1422 5.70001L7.93577 5.5C6.62842 5.56667 5.38989 5.96666 4.3578 6.76667C3.18807 8.90002 2.56881 11.3 2.5 13.7666C3.53209 14.8333 4.97706 15.5 6.49084 15.5C6.49084 15.5 6.97248 14.9667 7.3165 14.5C6.42203 14.3 5.59633 13.8333 5.04588 13.1C5.52752 13.3666 6.00916 13.6333 6.49084 13.8333C7.11011 14.1 7.72938 14.2333 8.34864 14.3667C8.89909 14.4333 9.44955 14.5 10 14.5C10.5505 14.5 11.1009 14.4333 11.6514 14.3667C12.2706 14.2333 12.8899 14.1 13.5092 13.8333C13.9908 13.6333 14.4725 13.3666 14.9541 13.1C14.4037 13.8333 13.578 14.3 12.6835 14.5C13.0275 14.9667 13.5092 15.5 13.5092 15.5C15.0229 15.5 16.4679 14.8333 17.5 13.7666C17.4312 11.3 16.8119 8.90002 15.6422 6.76667ZM7.72937 12.5666C7.0413 12.5666 6.42203 11.9666 6.42203 11.2333C6.42203 10.5 7.0413 9.9 7.72937 9.9C8.41745 9.9 9.03672 10.5 9.03672 11.2333C9.03672 11.9666 8.41745 12.5666 7.72937 12.5666ZM12.2706 12.5666C11.5825 12.5666 10.9633 11.9666 10.9633 11.2333C10.9633 10.5 11.5825 9.9 12.2706 9.9C12.9587 9.9 13.578 10.5 13.578 11.2333C13.578 11.9666 12.9587 12.5666 12.2706 12.5666Z" fill="#CFD7FF"></path>
    </symbol>
    <symbol fill="none" xmlns="http://www.w3.org/2000/svg" viewBox="0 0 64 46" id="logo">
        <path d="M7.89456 25.2345V34.3325C7.89456 34.503 7.81094 34.5883 7.64368 34.5883H0.239736C0.208254 34.5883 0.177081 34.5821 0.147995 34.5701C0.118909 34.5581 0.0924797 34.5405 0.0702182 34.5184C0.0479566 34.4962 0.0302958 34.4699 0.0182479 34.4409C0.00620002 34.412 1.27039e-08 34.3809 1.27039e-08 34.3496V18.0289C-9.78725e-06 18 0.00565039 17.9715 0.0166443 17.9449C0.0276382 17.9183 0.0437449 17.8942 0.0640122 17.8741C0.0842795 17.854 0.108296 17.8382 0.134647 17.8277C0.160998 17.8172 0.189147 17.8122 0.217435 17.8129C7.19394 17.8546 12.6205 17.8489 16.4972 17.7959C17.6383 17.7807 18.7124 17.3034 19.7197 16.3638C20.53 15.6061 20.9983 14.6098 21.1247 13.3747C21.4759 9.81166 19.3684 7.36241 15.8672 7.35673C11.9719 7.34537 6.76836 7.34726 0.256461 7.36241C0.188443 7.36241 0.12321 7.33427 0.0751141 7.28418C0.0270181 7.2341 1.27039e-08 7.16616 1.27039e-08 7.09533V0.412464C1.27039e-08 0.276079 0.0650438 0.207886 0.195133 0.207886C10.2417 0.226828 15.4769 0.23251 15.9006 0.224933C21.1079 0.156741 25.6629 2.15705 27.9822 7.08396C29.4541 10.2038 29.4095 15.2557 27.7369 18.5062C25.7596 22.3477 22.3958 24.4408 17.6457 24.7856C16.7871 24.8462 13.6464 24.8822 8.22351 24.8936C8.00422 24.8936 7.89456 25.0072 7.89456 25.2345Z" fill="white"></path>
        <path d="M61.324 24.0232C61.0996 24.0715 60.7871 24.1171 60.3867 24.1599C57.3925 24.4808 54.3983 24.8007 51.4039 25.1196C51.4009 25.1198 51.373 25.1207 51.3202 25.1221C51.2887 25.1228 51.2558 25.1287 51.2216 25.1399L50.9404 22.8075C50.9409 22.8039 50.9426 22.8007 50.9454 22.7985C50.9481 22.7963 50.9516 22.7953 50.9551 22.7957L61.324 24.0232Z" fill="#1B30A1"></path>
        <path d="M50.8855 22.2284C50.8532 22.2397 50.8241 22.2589 50.8006 22.2841C50.7772 22.3094 50.7601 22.3401 50.7508 22.3736C50.7414 22.4071 50.7402 22.4424 50.7472 22.4765C50.7541 22.5105 50.7691 22.5424 50.7907 22.5693L59.9062 34.0598C60.0698 34.2719 60.0196 34.378 59.7557 34.378H51.0026C50.9333 34.378 50.865 34.3616 50.8031 34.33C50.7412 34.2984 50.6873 34.2526 50.6457 34.1961L37.3766 16.7843C37.2391 16.6025 37.2837 16.5116 37.5104 16.5116C40.8593 16.5419 43.7677 16.5324 46.2357 16.4831C47.0386 16.468 47.8693 16.1611 48.7279 15.5625C50.5733 14.2782 50.8186 11.4028 50.0046 9.51614C49.0066 7.1976 46.9605 6.91346 44.5464 6.90778C40.0788 6.88884 35.2302 6.88126 30.0006 6.88505C29.8036 6.88505 29.7051 6.78655 29.7051 6.58955V0.378352C29.7051 0.154832 29.8129 0.0430701 30.0284 0.0430701C38.1311 -0.00239152 43.6265 -0.0118644 46.5145 0.0146549C54.1414 0.0828473 59.1703 5.78261 58.072 13.5281C57.4587 17.8697 55.0632 20.7698 50.8855 22.2284Z" fill="white"></path>
        <path d="M46.1137 33.8419C46.0509 33.8507 45.9945 33.8577 45.9443 33.8629C44.0122 34.0658 42.6014 34.2158 41.7116 34.3129C41.6493 34.3196 41.5688 34.3353 41.497 34.341C41.3978 34.3485 41.3474 34.3524 41.3458 34.3527C39.6328 34.5322 36.5546 34.8635 32.1114 35.3468C31.9184 35.3679 31.726 35.3938 31.5344 35.4246C31.5016 35.4298 31.4925 35.4351 31.5072 35.4406C31.4517 35.4458 31.3981 35.4396 31.3465 35.4221C31.3416 35.4203 31.3374 35.4169 31.3346 35.4124C31.3318 35.4079 31.3306 35.4025 31.3312 35.3972L32.3222 27.1765C32.3227 27.1725 32.3245 27.1688 32.3273 27.1661C32.3301 27.1633 32.3337 27.1616 32.3375 27.1612L51.2223 25.1399C51.2565 25.1288 51.2894 25.1229 51.3209 25.1222C51.3737 25.1208 51.4016 25.1199 51.4046 25.1197C54.399 24.8008 57.3932 24.4809 60.3874 24.16C60.7878 24.1172 61.1003 24.0716 61.3247 24.0233C61.374 24.0216 61.4198 24.0294 61.4623 24.0467C61.473 24.051 61.4777 24.0589 61.4763 24.0705L60.4853 32.2895C60.4848 32.2936 60.483 32.2973 60.4801 32.3002C60.4773 32.3031 60.4736 32.305 60.4696 32.3055L46.1137 33.8419ZM49.5477 31.3483C49.5453 31.3909 49.5326 31.4271 49.5093 31.457C49.5064 31.4608 49.5046 31.4654 49.5042 31.4702C49.5038 31.475 49.5048 31.4799 49.5071 31.4842C49.5093 31.4884 49.5127 31.4919 49.5169 31.4942C49.5211 31.4965 49.5259 31.4975 49.5306 31.4971C49.8428 31.4687 50.2066 31.4311 50.6219 31.3842C50.6329 31.3827 50.6406 31.3794 50.6453 31.3742C50.6557 31.3617 50.6578 31.3513 50.6516 31.343C50.6432 31.3321 50.6453 31.3239 50.6578 31.3185C50.6681 31.314 50.6753 31.296 50.6794 31.2645C50.6829 31.2361 50.6859 31.2178 50.6885 31.2098C50.7477 31.017 50.811 30.8235 50.8784 30.6291C50.881 30.6216 50.8856 30.6149 50.8918 30.61C50.898 30.605 50.9054 30.6019 50.9133 30.601L51.6582 30.5254L51.6837 31.0968C51.6842 31.1096 51.6907 31.1154 51.7032 31.1142L51.8056 31.1061L51.821 31.2194C51.8223 31.2292 51.8273 31.238 51.835 31.2441C51.8426 31.2502 51.8524 31.2531 51.8621 31.252L52.8698 31.1444C52.8734 31.144 52.8768 31.1428 52.8799 31.1411C52.883 31.1393 52.8858 31.1369 52.888 31.134C52.8902 31.1311 52.8918 31.1278 52.8927 31.1243C52.8937 31.1208 52.894 31.1171 52.8935 31.1135C52.871 30.9189 52.8386 30.6252 52.7963 30.2324C52.7937 30.2073 52.7903 30.1787 52.7858 30.1468C52.7501 29.8842 52.7157 29.5858 52.6827 29.2517C52.6697 29.1208 52.6472 28.9417 52.6151 28.7144C52.5879 28.5214 52.5671 28.3417 52.5527 28.1752C52.5497 28.1409 52.5439 28.0979 52.5353 28.0463C52.5258 27.9899 52.5175 27.9472 52.5106 27.9181C52.5034 27.888 52.4981 27.8234 52.4949 27.7242C52.49 27.5747 52.4756 27.4457 52.4517 27.337C52.444 27.302 52.4074 27.288 52.3419 27.2951L52.3311 27.1743C52.3308 27.171 52.3298 27.1677 52.3283 27.1646C52.3267 27.1616 52.3245 27.159 52.3219 27.1568C52.3194 27.1547 52.3164 27.1531 52.3131 27.1521C52.3099 27.1512 52.3066 27.1509 52.3032 27.1513L51.0004 27.2905C50.9969 27.2909 50.9936 27.2923 50.9908 27.2944C50.9881 27.2965 50.9859 27.2993 50.9847 27.3026L49.363 31.3462C49.3583 31.3578 49.3623 31.3631 49.3748 31.3621L49.5477 31.3483ZM47.0632 28.4824C47.0639 28.526 47.0584 28.5651 47.0468 28.5996C47.0456 28.6034 47.0453 28.6074 47.046 28.6113C47.0466 28.6152 47.0483 28.6189 47.0507 28.622C47.0531 28.6251 47.0562 28.6276 47.0598 28.6291C47.0634 28.6307 47.0673 28.6313 47.0712 28.6309L47.8113 28.5503L47.351 31.5667C47.3507 31.5688 47.3508 31.5709 47.3515 31.5729C47.3521 31.575 47.3531 31.5768 47.3546 31.5783C47.356 31.5799 47.3578 31.5811 47.3598 31.5818C47.3618 31.5826 47.3639 31.5829 47.366 31.5827L47.4953 31.5681L47.5085 31.6871C47.5108 31.707 47.5218 31.7159 47.5413 31.7138L48.6027 31.6001C48.6043 31.5999 48.6058 31.5992 48.607 31.598C48.6082 31.5969 48.609 31.5954 48.6093 31.5937L49.0856 28.4455C49.0869 28.4367 49.091 28.4285 49.0973 28.4224C49.1036 28.4162 49.1118 28.4123 49.1205 28.4114L49.9581 28.3219C49.9658 28.321 49.9729 28.3175 49.9783 28.3121C49.9838 28.3066 49.9872 28.2994 49.9881 28.2917L50.0759 27.5622C50.0775 27.5494 50.0721 27.5416 50.0595 27.5388C50.0203 27.5307 49.9784 27.5358 49.9338 27.554L49.9519 27.4223C49.9537 27.409 49.9483 27.4031 49.9355 27.4045L47.0499 27.7135C47.0444 27.7141 47.0392 27.7166 47.0351 27.7205C47.0311 27.7244 47.0285 27.7296 47.0276 27.7352L46.9137 28.4764C46.9118 28.4873 46.9165 28.4924 46.9276 28.4917L47.0632 28.4824ZM43.6511 31.9805L43.6417 32.0963C43.6414 32.1006 43.642 32.1049 43.6435 32.1089C43.645 32.1129 43.6473 32.1165 43.6503 32.1195C43.6534 32.1225 43.657 32.1248 43.661 32.1262C43.665 32.1276 43.6692 32.128 43.6734 32.1275L46.1854 31.8587C46.193 31.8578 46.2 31.8545 46.2055 31.8492C46.211 31.8438 46.2146 31.8368 46.2158 31.8292L46.3227 31.1345C46.3235 31.1294 46.3232 31.1242 46.3219 31.1192C46.3206 31.1142 46.3183 31.1096 46.3151 31.1055C46.312 31.1015 46.308 31.0982 46.3035 31.0958C46.299 31.0933 46.294 31.0919 46.2889 31.0915L46.1736 31.0833L46.1945 30.97C46.195 30.9674 46.1949 30.9646 46.1941 30.962C46.1934 30.9594 46.1921 30.957 46.1902 30.955C46.1884 30.953 46.1861 30.9515 46.1836 30.9505C46.1811 30.9496 46.1784 30.9492 46.1757 30.9494L44.8808 31.0876L44.9969 30.3464C44.9981 30.3376 45.0023 30.3296 45.0086 30.3235C45.0149 30.3174 45.023 30.3135 45.0317 30.3126L46.3262 30.1741C46.3369 30.1729 46.3469 30.1681 46.3546 30.1606C46.3624 30.1531 46.3674 30.1432 46.3691 30.1326L46.4757 29.44C46.4778 29.4258 46.472 29.4169 46.4583 29.4133C46.4439 29.4095 46.4301 29.4142 46.4168 29.4272C46.4129 29.431 46.4082 29.4338 46.4031 29.4356C46.398 29.4374 46.3926 29.438 46.3872 29.4375L46.3241 29.4314L46.3408 29.2972C46.3425 29.2844 46.337 29.2787 46.3245 29.2801L45.1624 29.3998L45.215 28.8696C45.2169 28.8503 45.2252 28.8323 45.2385 28.8186C45.2518 28.8049 45.2694 28.7963 45.2882 28.7943L46.6294 28.6508C46.6421 28.6494 46.6496 28.6421 46.6517 28.6291L46.7478 28.0026C46.7548 27.9576 46.736 27.9331 46.6914 27.9291L46.6036 27.9216L46.6217 27.7767C46.6231 27.7649 46.618 27.7595 46.6064 27.7607L44.1212 28.0268C44.1096 28.0279 44.1028 28.0345 44.101 28.0463L43.4971 31.9737C43.4967 31.9764 43.4969 31.979 43.4977 31.9815C43.4985 31.9841 43.4998 31.9864 43.5016 31.9883C43.5034 31.9902 43.5056 31.9917 43.508 31.9926C43.5104 31.9935 43.513 31.9939 43.5156 31.9936L43.6511 31.9805ZM39.9756 32.3733C39.9647 32.414 39.9605 32.4494 39.9631 32.4795C39.9635 32.4839 39.9647 32.4883 39.9668 32.4922C39.9688 32.4961 39.9716 32.4996 39.975 32.5025C39.9783 32.5053 39.9822 32.5075 39.9864 32.5088C39.9906 32.5101 39.995 32.5105 39.9993 32.5101C40.0521 32.5048 40.106 32.5012 40.161 32.499C40.2061 32.4974 40.7195 32.443 41.7012 32.336C41.9386 32.3102 42.1652 32.2563 42.381 32.1744C42.464 32.1429 42.5061 32.1232 42.5075 32.1151L42.6288 32.0437C42.7036 31.9997 42.7612 31.9598 42.8016 31.924C43.1166 31.6445 43.1818 31.252 43.1246 30.8418C43.1046 30.6979 43.042 30.5874 42.9368 30.5105C42.8745 30.397 42.7858 30.3055 42.6706 30.2359C42.8334 30.1163 42.9363 30.0375 42.9793 29.9994C43.049 29.9376 43.1096 29.8603 43.1612 29.7674C43.2072 29.6841 43.2411 29.5927 43.263 29.4932C43.3329 29.1743 43.2689 28.893 43.071 28.6494C42.9674 28.4978 42.8344 28.3976 42.672 28.3485C42.4458 28.28 42.2103 28.2743 41.9817 28.2782C41.8486 28.2806 41.7272 28.2871 41.6176 28.2977C41.2087 28.3375 40.8146 28.3793 40.4353 28.4231C40.4325 28.4234 40.4298 28.4246 40.4278 28.4265C40.4258 28.4285 40.4245 28.431 40.4241 28.4338L39.8195 32.3651C39.817 32.3817 39.8238 32.3892 39.8401 32.3875L39.9756 32.3733Z" fill="#2A4BFB"></path>
        <path d="M52.3412 27.295L52.7624 30.9952C52.7626 30.9963 52.7625 30.9975 52.7622 30.9986C52.7618 30.9998 52.7613 31.0008 52.7605 31.0018C52.7598 31.0027 52.7589 31.0035 52.7578 31.004C52.7568 31.0046 52.7556 31.005 52.7544 31.0051L51.8049 31.106L51.7025 31.1141C51.6899 31.1153 51.6834 31.1095 51.6829 31.0967L51.6575 30.5253L51.6481 30.3889C51.6472 30.3771 51.6409 30.3717 51.6293 30.3729L50.762 30.466C50.752 30.4669 50.7454 30.4724 50.7421 30.4823L50.5052 31.2282C50.5034 31.2339 50.5 31.2389 50.4955 31.2427C50.491 31.2465 50.4855 31.2488 50.4797 31.2495L49.5469 31.3482L49.3741 31.3621C49.3615 31.363 49.3576 31.3577 49.3622 31.3461L50.9839 27.3025C50.9852 27.2992 50.9873 27.2964 50.9901 27.2943C50.9928 27.2922 50.9961 27.2908 50.9996 27.2904L52.3025 27.1512C52.3058 27.1508 52.3092 27.1511 52.3124 27.152C52.3156 27.153 52.3186 27.1546 52.3212 27.1567C52.3238 27.1589 52.3259 27.1615 52.3275 27.1645C52.3291 27.1676 52.3301 27.1709 52.3304 27.1743L52.3412 27.295ZM51.1557 29.7524L51.6199 29.7027C51.6232 29.7023 51.6263 29.7007 51.6285 29.6982C51.6307 29.6956 51.6318 29.6923 51.6317 29.6889L51.5944 28.4525L51.585 27.9357C51.5836 27.8685 51.5728 27.8668 51.5526 27.9308L50.9745 29.7496C50.9737 29.7523 50.9736 29.7553 50.9741 29.7581C50.9747 29.7609 50.9759 29.7635 50.9777 29.7657C50.9795 29.768 50.9818 29.7697 50.9844 29.7708C50.987 29.7719 50.9898 29.7723 50.9926 29.772L51.1557 29.7524Z" fill="white"></path>
        <path d="M51.8047 31.106L52.7542 31.0051C52.7554 31.005 52.7566 31.0046 52.7576 31.004C52.7587 31.0035 52.7596 31.0027 52.7603 31.0018C52.7611 31.0008 52.7616 30.9998 52.762 30.9986C52.7623 30.9975 52.7624 30.9963 52.7622 30.9952L52.341 27.295C52.4065 27.2879 52.4431 27.3019 52.4507 27.3369C52.4746 27.4456 52.4891 27.5746 52.4939 27.7241C52.4972 27.8233 52.5024 27.8879 52.5096 27.918C52.5166 27.9471 52.5248 27.9898 52.5343 28.0462C52.5429 28.0978 52.5488 28.1408 52.5518 28.1751C52.5662 28.3416 52.587 28.5213 52.6141 28.7143C52.6462 28.9416 52.6687 29.1207 52.6817 29.2516C52.7147 29.5857 52.7491 29.8841 52.7849 30.1467C52.7893 30.1786 52.7928 30.2072 52.7953 30.2323C52.8376 30.6251 52.87 30.9188 52.8926 31.1134C52.893 31.117 52.8927 31.1207 52.8918 31.1242C52.8908 31.1277 52.8892 31.131 52.887 31.1339C52.8848 31.1368 52.8821 31.1392 52.879 31.141C52.8758 31.1427 52.8724 31.1439 52.8689 31.1443L51.8611 31.2519C51.8514 31.253 51.8417 31.2501 51.834 31.244C51.8263 31.2379 51.8213 31.2291 51.82 31.2193L51.8047 31.106Z" fill="#2A4BFB"></path>
        <path d="M49.9335 27.5539L49.8422 28.1705C49.8416 28.1742 49.8399 28.1777 49.8372 28.1803C49.8345 28.183 49.831 28.1846 49.8273 28.185L48.9697 28.2767C48.9665 28.277 48.9636 28.2783 48.9612 28.2806C48.9589 28.2828 48.9573 28.2858 48.9568 28.2891L48.4714 31.4469C48.4706 31.452 48.4682 31.4567 48.4645 31.4603C48.4608 31.4639 48.456 31.4662 48.4509 31.4668L47.4951 31.568L47.3658 31.5826C47.3637 31.5828 47.3615 31.5825 47.3596 31.5817C47.3576 31.581 47.3558 31.5798 47.3544 31.5782C47.3529 31.5767 47.3519 31.5748 47.3512 31.5728C47.3506 31.5708 47.3505 31.5687 47.3508 31.5666L47.8111 28.5502L47.8313 28.4237C47.8341 28.4071 47.8272 28.3997 47.8108 28.4013L47.063 28.4823L46.9274 28.4916C46.9163 28.4923 46.9116 28.4872 46.9135 28.4763L47.0274 27.735C47.0282 27.7295 47.0309 27.7243 47.0349 27.7204C47.0389 27.7165 47.0442 27.714 47.0497 27.7134L49.9353 27.4044C49.948 27.403 49.9535 27.4089 49.9517 27.4221L49.9335 27.5539Z" fill="white"></path>
        <path d="M47.4951 31.5681L48.4509 31.4669C48.456 31.4663 48.4608 31.464 48.4645 31.4604C48.4682 31.4568 48.4707 31.4521 48.4715 31.447L48.9569 28.2892C48.9574 28.2859 48.959 28.2829 48.9613 28.2807C48.9636 28.2784 48.9666 28.2771 48.9698 28.2768L49.8273 28.1851C49.831 28.1847 49.8345 28.1831 49.8372 28.1804C49.8399 28.1778 49.8417 28.1743 49.8423 28.1706L49.9336 27.554C49.9782 27.5358 50.0201 27.5307 50.0594 27.5387C50.0719 27.5416 50.0774 27.5494 50.0758 27.5622L49.988 28.2917C49.9871 28.2994 49.9836 28.3066 49.9782 28.312C49.9727 28.3175 49.9656 28.321 49.958 28.3219L49.1203 28.4114C49.1116 28.4123 49.1035 28.4162 49.0971 28.4223C49.0908 28.4285 49.0867 28.4367 49.0855 28.4455L48.6091 31.5937C48.6088 31.5953 48.608 31.5969 48.6068 31.598C48.6057 31.5992 48.6041 31.5999 48.6025 31.6001L47.5411 31.7137C47.5216 31.7159 47.5107 31.707 47.5084 31.6871L47.4951 31.5681Z" fill="#2A4BFB"></path>
        <path d="M46.6027 27.9216L46.5135 28.4962C46.5126 28.5015 46.5101 28.5063 46.5063 28.5099C46.5026 28.5135 46.4978 28.5158 46.4926 28.5165L45.1145 28.6639C45.1104 28.6643 45.1065 28.6661 45.1035 28.6689C45.1004 28.6718 45.0984 28.6757 45.0978 28.6798L44.9884 29.3916C44.9879 29.3947 44.9882 29.3978 44.9891 29.4008C44.99 29.4038 44.9916 29.4065 44.9937 29.4088C44.9959 29.411 44.9984 29.4128 45.0013 29.4138C45.0042 29.4149 45.0073 29.4153 45.0103 29.415L45.1615 29.3998L46.3236 29.2801C46.3362 29.2787 46.3416 29.2843 46.34 29.2971L46.3233 29.4314L46.2323 30.0099C46.2298 30.026 46.2205 30.0349 46.2045 30.0366L44.8852 30.1779C44.8741 30.1791 44.8676 30.1854 44.8657 30.1968L44.7291 31.0858C44.7288 31.0878 44.7289 31.0899 44.7295 31.0918C44.7301 31.0938 44.7312 31.0956 44.7326 31.0971C44.734 31.0986 44.7357 31.0998 44.7377 31.1005C44.7396 31.1013 44.7417 31.1016 44.7437 31.1014L44.88 31.0875L46.1748 30.9494C46.1775 30.9491 46.1803 30.9495 46.1828 30.9505C46.1853 30.9514 46.1876 30.953 46.1894 30.955C46.1912 30.957 46.1926 30.9594 46.1933 30.962C46.194 30.9646 46.1942 30.9673 46.1937 30.97L46.1728 31.0833L46.0797 31.7009C46.0788 31.7068 46.076 31.7122 46.0717 31.7163C46.0674 31.7204 46.0619 31.723 46.056 31.7236L43.6503 31.9804L43.5147 31.9936C43.5122 31.9938 43.5096 31.9935 43.5072 31.9925C43.5047 31.9916 43.5025 31.9901 43.5008 31.9882C43.499 31.9863 43.4977 31.984 43.4969 31.9815C43.4961 31.9789 43.4959 31.9763 43.4963 31.9737L44.1001 28.0462C44.102 28.0344 44.1087 28.0279 44.1204 28.0267L46.6055 27.7607C46.6171 27.7595 46.6223 27.7648 46.6209 27.7766L46.6027 27.9216Z" fill="white"></path>
        <path d="M51.5943 28.4525C51.5411 28.519 51.504 28.5935 51.4831 28.6759C51.4629 28.7555 51.4526 28.7961 51.4521 28.7977C51.3548 29.1136 51.2559 29.4318 51.1556 29.7524L50.9925 29.772C50.9897 29.7723 50.9869 29.7719 50.9842 29.7708C50.9816 29.7697 50.9793 29.768 50.9775 29.7657C50.9757 29.7635 50.9745 29.7609 50.974 29.7581C50.9734 29.7553 50.9736 29.7523 50.9744 29.7496L51.5525 27.9308C51.5727 27.8668 51.5835 27.8685 51.5849 27.9357L51.5943 28.4525Z" fill="#2A4BFB"></path>
        <path d="M45.1617 29.3997L45.0104 29.415C45.0074 29.4153 45.0043 29.4149 45.0014 29.4138C44.9986 29.4127 44.996 29.411 44.9939 29.4087C44.9918 29.4065 44.9902 29.4037 44.9892 29.4008C44.9883 29.3978 44.9881 29.3946 44.9885 29.3916L45.0979 28.6798C45.0986 28.6756 45.1006 28.6718 45.1036 28.6689C45.1066 28.666 45.1105 28.6642 45.1146 28.6638L46.4928 28.5164C46.4979 28.5158 46.5027 28.5135 46.5064 28.5099C46.5102 28.5062 46.5127 28.5014 46.5137 28.4962L46.6029 27.9215L46.6907 27.929C46.7353 27.933 46.7541 27.9575 46.7471 28.0025L46.651 28.629C46.6489 28.642 46.6414 28.6493 46.6287 28.6507L45.2875 28.7942C45.2687 28.7962 45.2511 28.8048 45.2378 28.8185C45.2245 28.8322 45.2162 28.8502 45.2143 28.8695L45.1617 29.3997Z" fill="#2A4BFB"></path>
        <path d="M43.0703 28.6493C43.1391 28.8404 43.1635 29.037 43.1435 29.2392C43.1207 29.4684 43.0365 29.6596 42.8908 29.8128C42.761 29.9495 42.6152 30.049 42.4535 30.1115C42.4082 30.1291 42.4093 30.1433 42.4567 30.1542C42.5224 30.1691 42.5935 30.1963 42.6699 30.2358C42.7851 30.3055 42.8739 30.397 42.9361 30.5104C42.9682 30.6063 42.9884 30.6918 42.9968 30.7668C43.0537 31.2671 42.9014 31.6398 42.54 31.8849C42.4215 31.9652 42.2678 32.035 42.079 32.0944C41.9122 32.147 41.7463 32.1823 41.5814 32.2003C41.0452 32.2583 40.5097 32.316 39.975 32.3733L39.8394 32.3875C39.8232 32.3891 39.8163 32.3817 39.8189 32.3651L40.4234 28.4337C40.4238 28.431 40.4251 28.4284 40.4272 28.4265C40.4292 28.4245 40.4318 28.4233 40.4346 28.4231C40.8139 28.3793 41.208 28.3375 41.6169 28.2977C41.7265 28.287 41.8479 28.2805 41.981 28.2782C42.2096 28.2742 42.4452 28.2799 42.6713 28.3485C42.8337 28.3975 42.9667 28.4978 43.0703 28.6493ZM41.4427 29.8753C41.5581 29.8737 41.6658 29.8525 41.7657 29.8118C41.9104 29.7528 42.0083 29.6497 42.0594 29.5024C42.1189 29.3317 42.1088 29.1692 42.0291 29.0148C41.9585 28.9445 41.8775 28.908 41.7862 28.9054C41.7022 28.903 41.5884 28.913 41.4451 28.9352C41.433 28.9371 41.4261 28.9442 41.4242 28.9565L41.2834 29.8714C41.2818 29.8828 41.2867 29.889 41.2981 29.8899C41.3492 29.8939 41.3974 29.8891 41.4427 29.8753ZM41.1772 31.5766C41.3135 31.5695 41.4085 31.556 41.4622 31.5361C41.875 31.3834 42.0016 31.0808 41.842 30.6283C41.7507 30.5367 41.6452 30.4929 41.5256 30.4969C41.4162 30.5007 41.3058 30.511 41.1946 30.5278C41.1844 30.5292 41.1784 30.5351 41.1768 30.5456L41.0183 31.5766C41.0179 31.5789 41.0181 31.5811 41.0188 31.5833C41.0194 31.5855 41.0206 31.5874 41.0222 31.5891C41.0237 31.5907 41.0256 31.5919 41.0277 31.5926C41.0298 31.5934 41.0321 31.5936 41.0343 31.5933L41.1772 31.5766Z" fill="white"></path>
        <path d="M47.8106 28.5502L47.0705 28.6308C47.0666 28.6312 47.0627 28.6306 47.0592 28.629C47.0556 28.6275 47.0524 28.625 47.05 28.6219C47.0476 28.6188 47.0459 28.6151 47.0453 28.6112C47.0446 28.6073 47.0449 28.6033 47.0461 28.5995C47.0578 28.565 47.0632 28.5259 47.0625 28.4823L47.8103 28.4013C47.8268 28.3997 47.8336 28.4072 47.8309 28.4237L47.8106 28.5502Z" fill="#2A4BFB"></path>
        <path d="M51.595 28.4525L51.6322 29.6889C51.6323 29.6923 51.6312 29.6956 51.629 29.6982C51.6268 29.7007 51.6237 29.7024 51.6204 29.7027L51.1562 29.7524C51.2566 29.4318 51.3554 29.1136 51.4528 28.7977C51.4532 28.7961 51.4636 28.7555 51.4838 28.6759C51.5047 28.5935 51.5418 28.519 51.595 28.4525Z" fill="#2A4BFB"></path>
        <path d="M42.6705 30.2358C42.5941 30.1963 42.523 30.1691 42.4572 30.1541C42.4099 30.1433 42.4088 30.129 42.4541 30.1115C42.6158 30.049 42.7616 29.9494 42.8914 29.8128C43.0371 29.6596 43.1213 29.4684 43.144 29.2392C43.164 29.037 43.1396 28.8404 43.0709 28.6493C43.2688 28.8929 43.3328 29.1742 43.2629 29.4932C43.241 29.5926 43.2071 29.684 43.1611 29.7674C43.1095 29.8602 43.0489 29.9375 42.9792 29.9993C42.9363 30.0374 42.8333 30.1163 42.6705 30.2358Z" fill="#2A4BFB"></path>
        <path d="M42.0292 29.0148L41.572 29.0592C41.5604 29.0603 41.5538 29.0669 41.5522 29.0787L41.4428 29.8753C41.3975 29.8891 41.3493 29.8939 41.2981 29.8899C41.2868 29.889 41.2819 29.8828 41.2835 29.8714L41.4243 28.9565C41.4261 28.9442 41.4331 28.9371 41.4452 28.9352C41.5885 28.9129 41.7022 28.903 41.7863 28.9054C41.8776 28.908 41.9586 28.9444 42.0292 29.0148Z" fill="#2A4BFB"></path>
        <path d="M41.4424 29.8753L41.5518 29.0787C41.5534 29.0669 41.56 29.0604 41.5717 29.0592L42.0288 29.0148C42.1085 29.1692 42.1186 29.3317 42.0591 29.5024C42.008 29.6497 41.9101 29.7528 41.7654 29.8118C41.6655 29.8525 41.5578 29.8737 41.4424 29.8753Z" fill="#2A4BFB"></path>
        <path d="M44.8805 31.0875L44.7443 31.1014C44.7422 31.1016 44.7402 31.1013 44.7382 31.1005C44.7363 31.0998 44.7345 31.0986 44.7331 31.0971C44.7317 31.0956 44.7307 31.0938 44.7301 31.0918C44.7295 31.0899 44.7293 31.0878 44.7297 31.0858L44.8663 30.1968C44.8681 30.1854 44.8746 30.1791 44.8858 30.1779L46.205 30.0366C46.221 30.0349 46.2303 30.0261 46.2329 30.01L46.3238 29.4314L46.3869 29.4374C46.3923 29.438 46.3977 29.4373 46.4028 29.4356C46.4079 29.4338 46.4126 29.4309 46.4165 29.4271C46.4298 29.4141 46.4436 29.4095 46.458 29.4133C46.4717 29.4168 46.4775 29.4257 46.4754 29.4399L46.3688 30.1325C46.3672 30.1432 46.3621 30.153 46.3543 30.1605C46.3466 30.168 46.3366 30.1728 46.3259 30.174L45.0314 30.3126C45.0227 30.3135 45.0146 30.3173 45.0083 30.3234C45.002 30.3295 44.9979 30.3376 44.9966 30.3463L44.8805 31.0875Z" fill="#2A4BFB"></path>
        <path d="M51.658 30.5253L50.913 30.601C50.9052 30.6019 50.8978 30.605 50.8916 30.6099C50.8854 30.6149 50.8808 30.6215 50.8782 30.629C50.8108 30.8234 50.7475 31.017 50.6883 31.2097C50.6857 31.2178 50.6827 31.236 50.6792 31.2644C50.675 31.2959 50.6678 31.3139 50.6576 31.3184C50.6451 31.3239 50.643 31.332 50.6514 31.3429C50.6576 31.3512 50.6555 31.3616 50.6451 31.3742C50.6404 31.3794 50.6327 31.3827 50.6217 31.3841C50.2064 31.431 49.8426 31.4687 49.5304 31.4971C49.5256 31.4975 49.5209 31.4965 49.5167 31.4942C49.5125 31.4919 49.5091 31.4884 49.5068 31.4841C49.5046 31.4798 49.5036 31.475 49.504 31.4702C49.5044 31.4654 49.5062 31.4607 49.5091 31.4569C49.5324 31.4271 49.5451 31.3909 49.5475 31.3483L50.4803 31.2495C50.486 31.2489 50.4915 31.2465 50.496 31.2428C50.5006 31.239 50.5039 31.2339 50.5057 31.2282L50.7426 30.4824C50.7459 30.4724 50.7525 30.467 50.7625 30.466L51.6298 30.373C51.6414 30.3718 51.6477 30.3771 51.6486 30.3889L51.658 30.5253Z" fill="#2A4BFB"></path>
        <path d="M41.8425 30.6284C41.6692 30.6149 41.5012 30.6268 41.3386 30.6642C41.3299 30.6662 41.322 30.6708 41.3159 30.6775C41.3098 30.6842 41.3058 30.6925 41.3045 30.7015L41.1776 31.5767L41.0348 31.5934C41.0326 31.5937 41.0303 31.5934 41.0282 31.5927C41.0261 31.592 41.0242 31.5907 41.0226 31.5891C41.0211 31.5875 41.0199 31.5855 41.0192 31.5834C41.0186 31.5812 41.0184 31.5789 41.0187 31.5767L41.1773 30.5456C41.1789 30.5352 41.1848 30.5293 41.195 30.5279C41.3063 30.511 41.4167 30.5007 41.5261 30.497C41.6457 30.4929 41.7512 30.5367 41.8425 30.6284Z" fill="#2A4BFB"></path>
        <path d="M39.9752 32.3732C40.5099 32.3159 41.0454 32.2583 41.5816 32.2003C41.7465 32.1823 41.9124 32.147 42.0791 32.0944C42.268 32.035 42.4217 31.9651 42.5402 31.8849C42.9016 31.6398 43.0539 31.2671 42.997 30.7668C42.9886 30.6917 42.9684 30.6063 42.9363 30.5104C43.0416 30.5873 43.1042 30.6978 43.1242 30.8417C43.1813 31.252 43.1161 31.6444 42.8011 31.9239C42.7607 31.9597 42.7031 31.9996 42.6283 32.0436L42.507 32.115C42.5057 32.1231 42.4635 32.1429 42.3806 32.1743C42.1648 32.2563 41.9381 32.3101 41.7007 32.3359C40.719 32.443 40.2056 32.4973 40.1606 32.499C40.1055 32.5011 40.0516 32.5048 39.9989 32.51C39.9945 32.5104 39.9901 32.51 39.986 32.5087C39.9818 32.5074 39.9779 32.5052 39.9745 32.5024C39.9711 32.4996 39.9684 32.4961 39.9663 32.4921C39.9643 32.4882 39.963 32.4839 39.9626 32.4794C39.9601 32.4494 39.9643 32.414 39.9752 32.3732Z" fill="#2A4BFB"></path>
        <path d="M41.8426 30.6283C42.0022 31.0808 41.8756 31.3834 41.4628 31.5361C41.4091 31.556 41.3141 31.5695 41.1777 31.5766L41.3046 30.7015C41.3059 30.6925 41.3099 30.6841 41.316 30.6774C41.3221 30.6708 41.33 30.6661 41.3387 30.6642C41.5013 30.6268 41.6693 30.6148 41.8426 30.6283Z" fill="#2A4BFB"></path>
        <path d="M43.6511 31.9804L46.0568 31.7236C46.0627 31.723 46.0682 31.7204 46.0725 31.7163C46.0768 31.7122 46.0796 31.7068 46.0805 31.7009L46.1736 31.0833L46.2889 31.0914C46.294 31.0918 46.2989 31.0933 46.3034 31.0957C46.308 31.0981 46.3119 31.1014 46.3151 31.1055C46.3183 31.1095 46.3206 31.1141 46.3219 31.1191C46.3232 31.1241 46.3235 31.1293 46.3227 31.1344L46.2157 31.8291C46.2145 31.8367 46.2109 31.8437 46.2055 31.8491C46.2 31.8544 46.1929 31.8577 46.1854 31.8586L43.6734 32.1274C43.6692 32.1279 43.665 32.1275 43.661 32.1261C43.657 32.1247 43.6533 32.1224 43.6503 32.1194C43.6473 32.1165 43.6449 32.1128 43.6434 32.1088C43.642 32.1048 43.6414 32.1005 43.6417 32.0962L43.6511 31.9804Z" fill="#2A4BFB"></path>
        <path d="M46.1133 33.8419L48.4919 37.1906C48.4954 37.1955 48.4975 37.2019 48.4946 37.2072C48.4931 37.2099 48.491 37.2124 48.4886 37.2143C48.4862 37.2163 48.4834 37.2177 48.4804 37.2185C48.4774 37.2194 48.4743 37.2196 48.4712 37.2192L31.5068 35.4405C31.4921 35.4351 31.5012 35.4298 31.534 35.4246C31.7256 35.3938 31.918 35.3678 32.111 35.3468C36.5542 34.8635 39.6324 34.5321 41.3454 34.3527C41.347 34.3524 41.3974 34.3485 41.4966 34.3409C41.5684 34.3352 41.6489 34.3196 41.7112 34.3129C42.601 34.2158 44.0118 34.0658 45.9439 33.8629C45.9941 33.8577 46.0505 33.8507 46.1133 33.8419Z" fill="#1B30A1"></path>
    </symbol>
    <symbol fill="none" xmlns="http://www.w3.org/2000/svg" viewBox="0 0 104 17" id="dots">
        <path d="M102 2.00016C102 5.53638 96.7322 8.92777 87.3553 11.4283C77.9785 13.9287 65.2608 15.3335 52 15.3335C38.7392 15.3335 26.0215 13.9287 16.6447 11.4283C7.26784 8.92777 2 5.53638 2 2.00016" stroke="#2750F2" stroke-width="3.33333" stroke-linecap="round" stroke-linejoin="round" stroke-dasharray="0.33 10"></path>
    </symbol>
    <symbol fill="none" xmlns="http://www.w3.org/2000/svg" viewBox="0 0 17 32" id="loader">
        <path d="M16 31C12.0218 31 8.20644 29.4196 5.3934 26.6066C2.58035 23.7936 1 19.9782 1 16C1 12.0218 2.58035 8.20644 5.3934 5.3934C8.20644 2.58035 12.0218 1 16 1" stroke="#2750F2" stroke-width="2" stroke-linecap="round" stroke-linejoin="round"></path>
    </symbol>
    <symbol fill="none" xmlns="http://www.w3.org/2000/svg" viewBox="0 0 17 32" id="loader-1">
        <path d="M1 31C4.97825 31 8.79356 29.4196 11.6066 26.6066C14.4196 23.7936 16 19.9782 16 16C16 12.0218 14.4196 8.20644 11.6066 5.3934C8.79356 2.58035 4.97825 1 1 1" stroke="#2750F2" stroke-width="2" stroke-linecap="round" stroke-linejoin="round"></path>
    </symbol>
    <symbol fill="none" xmlns="http://www.w3.org/2000/svg" viewBox="0 0 25 24" id="red_notification">
        <circle cx="12.5" cy="12" r="10" stroke="#FF2D31" stroke-width="1.5"></circle>
        <path d="M12.5 17V11" stroke="#FF2D31" stroke-width="1.5" stroke-linecap="round"></path>
        <circle cx="1" cy="1" r="1" transform="matrix(1 0 0 -1 11.5 9)" fill="#FF2D31"></circle>
    </symbol>
</svg>