<svg xmlns="http://www.w3.org/2000/svg" version="1.1" xmlns:xlink="http://www.w3.org/1999/xlink" xmlns:svgjs="http://svgjs.dev/svgjs" width="83" height="83"><svg width="83" height="83" viewBox="0 0 83 83" fill="none" xmlns="http://www.w3.org/2000/svg">
<rect width="83" height="83" rx="15" fill="#202125"></rect>
<path d="M17.8946 48.0266V57.1247C17.8946 57.2951 17.8109 57.3804 17.6437 57.3804H10.2397C10.2083 57.3804 10.1771 57.3742 10.148 57.3622C10.1189 57.3502 10.0925 57.3326 10.0702 57.3105C10.048 57.2883 10.0303 57.262 10.0182 57.233C10.0062 57.2041 10 57.173 10 57.1417V40.821C9.99999 40.7921 10.0057 40.7636 10.0166 40.737C10.0276 40.7104 10.0437 40.6864 10.064 40.6662C10.0843 40.6461 10.1083 40.6303 10.1346 40.6198C10.161 40.6093 10.1891 40.6043 10.2174 40.605C17.1939 40.6467 22.6205 40.641 26.4972 40.588C27.6383 40.5728 28.7124 40.0955 29.7197 39.1559C30.53 38.3982 30.9983 37.4019 31.1247 36.1668C31.4759 32.6038 29.3684 30.1545 25.8672 30.1488C21.9719 30.1375 16.7684 30.1394 10.2565 30.1545C10.1884 30.1545 10.1232 30.1264 10.0751 30.0763C10.027 30.0262 10 29.9583 10 29.8874V23.2046C10 23.0682 10.065 23 10.1951 23C20.2417 23.0189 25.4769 23.0246 25.9006 23.017C31.1079 22.9489 35.6629 24.9492 37.9822 29.8761C39.4541 32.9959 39.4095 38.0478 37.7369 41.2983C35.7596 45.1398 32.3958 47.233 27.6457 47.5777C26.7871 47.6383 23.6464 47.6743 18.2235 47.6857C18.0042 47.6857 17.8946 47.7993 17.8946 48.0266Z" fill="white"></path>
<path d="M71.324 46.8157C71.0996 46.864 70.7871 46.9096 70.3867 46.9524C67.3925 47.2733 64.3983 47.5932 61.4039 47.9121C61.4009 47.9123 61.373 47.9132 61.3202 47.9146C61.2887 47.9153 61.2558 47.9212 61.2216 47.9323L60.9404 45.5999C60.9409 45.5964 60.9426 45.5932 60.9454 45.591C60.9481 45.5888 60.9516 45.5878 60.9551 45.5882L71.324 46.8157Z" fill="#1B30A1"></path>
<path d="M60.8855 45.0206C60.8532 45.0319 60.8241 45.0511 60.8006 45.0764C60.7772 45.1017 60.7601 45.1324 60.7508 45.1659C60.7414 45.1993 60.7402 45.2346 60.7472 45.2687C60.7541 45.3028 60.7691 45.3346 60.7907 45.3616L69.9062 56.852C70.0698 57.0641 70.0196 57.1702 69.7557 57.1702H61.0026C60.9333 57.1702 60.865 57.1538 60.8031 57.1222C60.7412 57.0907 60.6873 57.0448 60.6457 56.9884L47.3766 39.5766C47.2391 39.3947 47.2837 39.3038 47.5104 39.3038C50.8593 39.3341 53.7677 39.3246 56.2357 39.2754C57.0386 39.2602 57.8693 38.9534 58.7279 38.3548C60.5733 37.0705 60.8186 34.195 60.0046 32.3084C59.0066 29.9898 56.9605 29.7057 54.5464 29.7C50.0788 29.6811 45.2302 29.6735 40.0006 29.6773C39.8036 29.6773 39.7051 29.5788 39.7051 29.3818V23.1706C39.7051 22.9471 39.8129 22.8353 40.0284 22.8353C48.1311 22.7898 53.6265 22.7804 56.5145 22.8069C64.1414 22.8751 69.1703 28.5748 68.072 36.3204C67.4587 40.662 65.0632 43.562 60.8855 45.0206Z" fill="white"></path>
<path d="M56.1137 56.6343C56.0509 56.6431 55.9945 56.65 55.9443 56.6553C54.0122 56.8582 52.6014 57.0082 51.7116 57.1053C51.6493 57.112 51.5688 57.1276 51.497 57.1333C51.3978 57.1409 51.3474 57.1448 51.3458 57.145C49.6328 57.3245 46.5546 57.6559 42.1114 58.1391C41.9184 58.1602 41.726 58.1862 41.5344 58.2169C41.5016 58.2221 41.4925 58.2275 41.5072 58.2329C41.4517 58.2381 41.3981 58.232 41.3465 58.2144C41.3416 58.2127 41.3374 58.2093 41.3346 58.2048C41.3318 58.2002 41.3306 58.1949 41.3312 58.1896L42.3222 49.9688C42.3227 49.9649 42.3245 49.9612 42.3273 49.9584C42.3301 49.9557 42.3337 49.9539 42.3375 49.9536L61.2223 47.9323C61.2565 47.9212 61.2894 47.9153 61.3209 47.9145C61.3737 47.9131 61.4016 47.9123 61.4046 47.9121C64.399 47.5931 67.3932 47.2732 70.3874 46.9524C70.7879 46.9095 71.1003 46.864 71.3247 46.8156C71.374 46.814 71.4198 46.8218 71.4623 46.8391C71.473 46.8434 71.4777 46.8513 71.4763 46.8629L70.4853 55.0819C70.4848 55.0859 70.483 55.0897 70.4801 55.0926C70.4773 55.0955 70.4736 55.0973 70.4696 55.0978L56.1137 56.6343ZM59.5477 54.1407C59.5453 54.1833 59.5326 54.2195 59.5093 54.2493C59.5064 54.2531 59.5046 54.2577 59.5042 54.2626C59.5038 54.2674 59.5048 54.2722 59.5071 54.2765C59.5093 54.2808 59.5127 54.2843 59.5169 54.2866C59.5211 54.2889 59.5259 54.2899 59.5306 54.2895C59.8428 54.2611 60.2066 54.2234 60.6219 54.1765C60.6329 54.1751 60.6406 54.1718 60.6453 54.1666C60.6557 54.154 60.6578 54.1436 60.6516 54.1353C60.6432 54.1244 60.6453 54.1163 60.6578 54.1108C60.6681 54.1063 60.6753 54.0883 60.6794 54.0568C60.6829 54.0284 60.6859 54.0102 60.6885 54.0021C60.7477 53.8094 60.811 53.6158 60.8784 53.4214C60.881 53.4139 60.8856 53.4073 60.8918 53.4023C60.898 53.3973 60.9054 53.3943 60.9133 53.3934L61.6582 53.3177L61.6837 53.8892C61.6842 53.902 61.6907 53.9078 61.7032 53.9066L61.8056 53.8984L61.821 54.0117C61.8223 54.0215 61.8273 54.0304 61.835 54.0365C61.8426 54.0426 61.8524 54.0454 61.8621 54.0444L62.8698 53.9368C62.8734 53.9363 62.8768 53.9352 62.8799 53.9334C62.883 53.9316 62.8858 53.9292 62.888 53.9263C62.8902 53.9235 62.8918 53.9202 62.8927 53.9167C62.8937 53.9132 62.894 53.9095 62.8935 53.9059C62.871 53.7113 62.8386 53.4175 62.7963 53.0247C62.7937 52.9996 62.7903 52.9711 62.7858 52.9391C62.7501 52.6765 62.7157 52.3782 62.6827 52.0441C62.6697 51.9132 62.6472 51.734 62.6151 51.5067C62.5879 51.3137 62.5671 51.134 62.5527 50.9676C62.5497 50.9332 62.5439 50.8903 62.5353 50.8386C62.5258 50.7823 62.5175 50.7396 62.5106 50.7104C62.5034 50.6804 62.4981 50.6157 62.4949 50.5165C62.49 50.3671 62.4756 50.2381 62.4517 50.1294C62.444 50.0943 62.4074 50.0804 62.3419 50.0875L62.3311 49.9667C62.3308 49.9633 62.3298 49.96 62.3283 49.957C62.3267 49.954 62.3245 49.9513 62.3219 49.9492C62.3194 49.947 62.3164 49.9454 62.3131 49.9445C62.3099 49.9435 62.3066 49.9432 62.3032 49.9436L61.0004 50.0828C60.9969 50.0833 60.9936 50.0846 60.9908 50.0867C60.9881 50.0889 60.9859 50.0917 60.9847 50.0949L59.363 54.1385C59.3583 54.1501 59.3623 54.1555 59.3748 54.1545L59.5477 54.1407ZM57.0632 51.2748C57.0639 51.3184 57.0584 51.3574 57.0468 51.392C57.0456 51.3958 57.0453 51.3998 57.046 51.4037C57.0466 51.4076 57.0483 51.4113 57.0507 51.4144C57.0531 51.4175 57.0562 51.4199 57.0598 51.4215C57.0634 51.423 57.0673 51.4236 57.0712 51.4233L57.8113 51.3426L57.351 54.3591C57.3507 54.3612 57.3508 54.3633 57.3515 54.3653C57.3521 54.3673 57.3531 54.3692 57.3546 54.3707C57.356 54.3722 57.3578 54.3734 57.3598 54.3742C57.3618 54.3749 57.3639 54.3752 57.366 54.3751L57.4953 54.3605L57.5085 54.4795C57.5108 54.4994 57.5218 54.5083 57.5413 54.5061L58.6027 54.3925C58.6043 54.3923 58.6058 54.3915 58.607 54.3904C58.6082 54.3892 58.609 54.3877 58.6093 54.3861L59.0856 51.2379C59.0869 51.229 59.091 51.2209 59.0973 51.2147C59.1036 51.2086 59.1118 51.2047 59.1205 51.2038L59.9581 51.1143C59.9658 51.1134 59.9729 51.1099 59.9783 51.1044C59.9838 51.0989 59.9872 51.0918 59.9881 51.0841L60.0759 50.3546C60.0775 50.3418 60.0721 50.334 60.0595 50.3311C60.0203 50.3231 59.9784 50.3282 59.9338 50.3464L59.9519 50.2146C59.9537 50.2014 59.9483 50.1954 59.9355 50.1969L57.0499 50.5059C57.0444 50.5065 57.0392 50.509 57.0351 50.5129C57.0311 50.5168 57.0285 50.5219 57.0276 50.5275L56.9137 51.2688C56.9118 51.2796 56.9165 51.2847 56.9276 51.284L57.0632 51.2748ZM53.6511 54.7729L53.6417 54.8886C53.6414 54.8929 53.642 54.8972 53.6435 54.9013C53.645 54.9053 53.6473 54.9089 53.6503 54.9119C53.6534 54.9149 53.657 54.9171 53.661 54.9185C53.665 54.9199 53.6692 54.9204 53.6734 54.9199L56.1854 54.651C56.193 54.6502 56.2 54.6468 56.2055 54.6415C56.211 54.6362 56.2146 54.6292 56.2158 54.6216L56.3227 53.9268C56.3235 53.9218 56.3232 53.9166 56.3219 53.9116C56.3206 53.9066 56.3183 53.9019 56.3151 53.8979C56.312 53.8939 56.308 53.8905 56.3035 53.8881C56.299 53.8857 56.294 53.8843 56.2889 53.8839L56.1736 53.8757L56.1945 53.7624C56.195 53.7597 56.1949 53.757 56.1941 53.7544C56.1934 53.7518 56.1921 53.7494 56.1902 53.7474C56.1884 53.7454 56.1861 53.7439 56.1836 53.7429C56.1811 53.7419 56.1784 53.7415 56.1757 53.7418L54.8808 53.88L54.9969 53.1387C54.9981 53.13 55.0023 53.1219 55.0086 53.1158C55.0149 53.1097 55.023 53.1059 55.0317 53.105L56.3262 52.9665C56.3369 52.9652 56.3469 52.9605 56.3546 52.953C56.3624 52.9455 56.3674 52.9356 56.3691 52.9249L56.4757 52.2323C56.4778 52.2181 56.472 52.2092 56.4583 52.2057C56.4439 52.2019 56.4301 52.2065 56.4168 52.2195C56.4129 52.2233 56.4082 52.2262 56.4031 52.228C56.398 52.2298 56.3926 52.2304 56.3872 52.2298L56.3241 52.2238L56.3408 52.0896C56.3425 52.0768 56.337 52.0711 56.3245 52.0725L55.1624 52.1922L55.215 51.6619C55.2169 51.6427 55.2252 51.6247 55.2385 51.611C55.2518 51.5973 55.2694 51.5887 55.2882 51.5866L56.6294 51.4431C56.6421 51.4417 56.6496 51.4345 56.6517 51.4215L56.7478 50.795C56.7548 50.75 56.736 50.7255 56.6914 50.7214L56.6036 50.714L56.6217 50.5691C56.6231 50.5572 56.618 50.5519 56.6064 50.5531L54.1212 50.8191C54.1096 50.8203 54.1028 50.8268 54.101 50.8386L53.4971 54.7661C53.4967 54.7687 53.4969 54.7714 53.4977 54.7739C53.4985 54.7764 53.4998 54.7787 53.5016 54.7806C53.5034 54.7825 53.5056 54.784 53.508 54.785C53.5104 54.7859 53.513 54.7862 53.5156 54.786L53.6511 54.7729ZM49.9756 55.1657C49.9647 55.2064 49.9605 55.2418 49.9631 55.2719C49.9635 55.2763 49.9647 55.2806 49.9668 55.2846C49.9688 55.2885 49.9716 55.292 49.975 55.2948C49.9783 55.2977 49.9822 55.2998 49.9864 55.3011C49.9906 55.3024 49.995 55.3029 49.9993 55.3024C50.0521 55.2972 50.106 55.2935 50.161 55.2914C50.2061 55.2897 50.7195 55.2354 51.7012 55.1284C51.9386 55.1026 52.1652 55.0487 52.381 54.9668C52.464 54.9353 52.5061 54.9155 52.5075 54.9075L52.6288 54.8361C52.7036 54.792 52.7612 54.7521 52.8016 54.7164C53.1166 54.4369 53.1818 54.0444 53.1246 53.6342C53.1046 53.4902 53.042 53.3798 52.9368 53.3028C52.8745 53.1894 52.7858 53.0979 52.6706 53.0283C52.8334 52.9087 52.9363 52.8298 52.9793 52.7917C53.049 52.7299 53.1096 52.6526 53.1612 52.5598C53.2072 52.4765 53.2411 52.3851 53.263 52.2856C53.3329 51.9667 53.2689 51.6854 53.071 51.4417C52.9674 51.2902 52.8344 51.1899 52.672 51.1409C52.4458 51.0723 52.2103 51.0667 51.9817 51.0706C51.8486 51.0729 51.7272 51.0795 51.6176 51.0901C51.2087 51.1299 50.8146 51.1717 50.4353 51.2155C50.4325 51.2158 50.4298 51.217 50.4278 51.2189C50.4258 51.2208 50.4245 51.2234 50.4241 51.2261L49.8195 55.1575C49.817 55.1741 49.8238 55.1815 49.8401 55.1799L49.9756 55.1657Z" fill="#2A4BFB"></path>
<path d="M62.3412 50.0874L62.7624 53.7875C62.7626 53.7887 62.7625 53.7899 62.7622 53.791C62.7618 53.7921 62.7613 53.7932 62.7605 53.7941C62.7598 53.795 62.7589 53.7958 62.7578 53.7964C62.7568 53.797 62.7556 53.7973 62.7544 53.7975L61.8049 53.8983L61.7025 53.9065C61.6899 53.9077 61.6834 53.9019 61.6829 53.8891L61.6575 53.3176L61.6481 53.1813C61.6472 53.1694 61.6409 53.1641 61.6293 53.1653L60.762 53.2583C60.752 53.2593 60.7454 53.2647 60.7421 53.2747L60.5052 54.0205C60.5034 54.0262 60.5 54.0313 60.4955 54.0351C60.491 54.0388 60.4855 54.0412 60.4797 54.0418L59.5469 54.1406L59.3741 54.1544C59.3615 54.1554 59.3576 54.15 59.3622 54.1384L60.9839 50.0948C60.9852 50.0916 60.9873 50.0888 60.9901 50.0867C60.9928 50.0845 60.9961 50.0832 60.9996 50.0828L62.3025 49.9435C62.3058 49.9431 62.3092 49.9434 62.3124 49.9444C62.3156 49.9453 62.3186 49.9469 62.3212 49.9491C62.3238 49.9512 62.3259 49.9539 62.3275 49.9569C62.3291 49.9599 62.3301 49.9632 62.3304 49.9666L62.3412 50.0874ZM61.1557 52.5448L61.6199 52.4951C61.6232 52.4947 61.6263 52.4931 61.6285 52.4905C61.6307 52.4879 61.6318 52.4846 61.6317 52.4812L61.5944 51.2449L61.585 50.7281C61.5836 50.6609 61.5728 50.6592 61.5526 50.7231L60.9745 52.5419C60.9737 52.5447 60.9736 52.5476 60.9741 52.5504C60.9747 52.5532 60.9759 52.5559 60.9777 52.5581C60.9795 52.5603 60.9818 52.562 60.9844 52.5631C60.987 52.5642 60.9898 52.5646 60.9926 52.5643L61.1557 52.5448Z" fill="white"></path>
<path d="M61.8047 53.8985L62.7542 53.7976C62.7554 53.7974 62.7566 53.7971 62.7576 53.7965C62.7587 53.7959 62.7596 53.7952 62.7603 53.7942C62.7611 53.7933 62.7616 53.7923 62.762 53.7911C62.7623 53.79 62.7624 53.7888 62.7622 53.7876L62.341 50.0875C62.4065 50.0804 62.4431 50.0944 62.4507 50.1294C62.4746 50.2381 62.4891 50.3671 62.4939 50.5165C62.4972 50.6157 62.5024 50.6804 62.5096 50.7105C62.5166 50.7396 62.5248 50.7823 62.5343 50.8387C62.5429 50.8903 62.5488 50.9333 62.5518 50.9676C62.5662 51.1341 62.587 51.3138 62.6141 51.5067C62.6462 51.7341 62.6687 51.9132 62.6817 52.0441C62.7147 52.3782 62.7491 52.6766 62.7849 52.9391C62.7893 52.9711 62.7928 52.9996 62.7953 53.0247C62.8376 53.4176 62.87 53.7113 62.8926 53.9059C62.893 53.9095 62.8927 53.9132 62.8918 53.9167C62.8908 53.9202 62.8892 53.9235 62.887 53.9264C62.8848 53.9292 62.8821 53.9316 62.879 53.9334C62.8758 53.9352 62.8724 53.9364 62.8689 53.9368L61.8611 54.0444C61.8514 54.0455 61.8417 54.0426 61.834 54.0365C61.8263 54.0304 61.8213 54.0215 61.82 54.0118L61.8047 53.8985Z" fill="#2A4BFB"></path>
<path d="M59.9335 50.3463L59.8422 50.9628C59.8416 50.9666 59.8399 50.9701 59.8372 50.9727C59.8345 50.9753 59.831 50.977 59.8273 50.9774L58.9697 51.069C58.9665 51.0693 58.9636 51.0707 58.9612 51.0729C58.9589 51.0752 58.9573 51.0782 58.9568 51.0815L58.4714 54.2393C58.4706 54.2444 58.4682 54.2491 58.4645 54.2527C58.4608 54.2563 58.456 54.2585 58.4509 54.2592L57.4951 54.3604L57.3658 54.3749C57.3637 54.3751 57.3615 54.3748 57.3596 54.3741C57.3576 54.3733 57.3558 54.3721 57.3544 54.3706C57.3529 54.369 57.3519 54.3672 57.3512 54.3652C57.3506 54.3632 57.3505 54.361 57.3508 54.359L57.8111 51.3425L57.8313 51.2161C57.8341 51.1995 57.8272 51.192 57.8108 51.1937L57.063 51.2747L56.9274 51.2839C56.9163 51.2846 56.9116 51.2795 56.9135 51.2686L57.0274 50.5274C57.0282 50.5218 57.0309 50.5167 57.0349 50.5128C57.0389 50.5088 57.0442 50.5064 57.0497 50.5057L59.9353 50.1967C59.948 50.1953 59.9535 50.2012 59.9517 50.2145L59.9335 50.3463Z" fill="white"></path>
<path d="M57.4951 54.3605L58.4509 54.2593C58.456 54.2586 58.4608 54.2564 58.4645 54.2528C58.4682 54.2492 58.4707 54.2445 58.4715 54.2394L58.9569 51.0816C58.9574 51.0783 58.959 51.0753 58.9613 51.073C58.9636 51.0708 58.9666 51.0694 58.9698 51.0691L59.8273 50.9775C59.831 50.9771 59.8345 50.9754 59.8372 50.9728C59.8399 50.9702 59.8417 50.9667 59.8423 50.9629L59.9336 50.3464C59.9782 50.3281 60.0201 50.323 60.0594 50.3311C60.0719 50.3339 60.0774 50.3417 60.0758 50.3545L59.988 51.0841C59.9871 51.0918 59.9836 51.0989 59.9782 51.1044C59.9727 51.1099 59.9656 51.1133 59.958 51.1142L59.1203 51.2037C59.1116 51.2047 59.1035 51.2085 59.0971 51.2147C59.0908 51.2209 59.0867 51.229 59.0855 51.2378L58.6091 54.3861C58.6088 54.3877 58.608 54.3892 58.6068 54.3904C58.6057 54.3915 58.6041 54.3922 58.6025 54.3925L57.5411 54.5061C57.5216 54.5082 57.5107 54.4994 57.5084 54.4795L57.4951 54.3605Z" fill="#2A4BFB"></path>
<path d="M56.6027 50.714L56.5135 51.2887C56.5126 51.2939 56.5101 51.2987 56.5063 51.3024C56.5026 51.306 56.4978 51.3083 56.4926 51.3089L55.1145 51.4563C55.1104 51.4567 55.1065 51.4585 55.1035 51.4614C55.1004 51.4643 55.0984 51.4681 55.0978 51.4723L54.9884 52.1841C54.9879 52.1872 54.9882 52.1903 54.9891 52.1933C54.99 52.1963 54.9916 52.199 54.9937 52.2012C54.9959 52.2035 54.9984 52.2052 55.0013 52.2063C55.0042 52.2074 55.0073 52.2078 55.0103 52.2075L55.1615 52.1922L56.3236 52.0726C56.3362 52.0711 56.3416 52.0768 56.34 52.0896L56.3233 52.2239L56.2323 52.8024C56.2298 52.8185 56.2205 52.8274 56.2045 52.8291L54.8852 52.9704C54.8741 52.9716 54.8676 52.9779 54.8657 52.9892L54.7291 53.8782C54.7288 53.8803 54.7289 53.8823 54.7295 53.8843C54.7301 53.8863 54.7312 53.8881 54.7326 53.8896C54.734 53.8911 54.7357 53.8923 54.7377 53.893C54.7396 53.8938 54.7417 53.894 54.7437 53.8939L54.88 53.88L56.1748 53.7418C56.1775 53.7416 56.1803 53.742 56.1828 53.7429C56.1853 53.7439 56.1876 53.7455 56.1894 53.7475C56.1912 53.7495 56.1926 53.7518 56.1933 53.7545C56.194 53.7571 56.1942 53.7598 56.1937 53.7624L56.1728 53.8757L56.0797 54.4934C56.0788 54.4993 56.076 54.5047 56.0717 54.5088C56.0674 54.5129 56.0619 54.5155 56.056 54.5161L53.6503 54.7729L53.5147 54.786C53.5122 54.7863 53.5096 54.7859 53.5072 54.785C53.5047 54.7841 53.5025 54.7826 53.5008 54.7807C53.499 54.7788 53.4977 54.7765 53.4969 54.7739C53.4961 54.7714 53.4959 54.7688 53.4963 54.7662L54.1001 50.8387C54.102 50.8269 54.1087 50.8203 54.1204 50.8192L56.6055 50.5531C56.6171 50.552 56.6223 50.5573 56.6209 50.5691L56.6027 50.714Z" fill="white"></path>
<path d="M61.5943 51.245C61.5411 51.3115 61.504 51.386 61.4831 51.4684C61.4629 51.548 61.4526 51.5886 61.4521 51.5902C61.3548 51.9061 61.2559 52.2243 61.1556 52.5449L60.9925 52.5644C60.9897 52.5647 60.9869 52.5643 60.9842 52.5632C60.9816 52.5622 60.9793 52.5604 60.9775 52.5582C60.9757 52.556 60.9745 52.5534 60.974 52.5506C60.9734 52.5477 60.9736 52.5448 60.9744 52.5421L61.5525 50.7233C61.5727 50.6593 61.5835 50.661 61.5849 50.7282L61.5943 51.245Z" fill="#2A4BFB"></path>
<path d="M55.1617 52.1921L55.0104 52.2074C55.0074 52.2077 55.0043 52.2072 55.0014 52.2062C54.9986 52.2051 54.996 52.2033 54.9939 52.2011C54.9918 52.1988 54.9902 52.1961 54.9892 52.1931C54.9883 52.1902 54.9881 52.187 54.9885 52.1839L55.0979 51.4722C55.0986 51.468 55.1006 51.4642 55.1036 51.4613C55.1066 51.4584 55.1105 51.4566 55.1146 51.4562L56.4928 51.3088C56.4979 51.3082 56.5027 51.3059 56.5064 51.3022C56.5102 51.2986 56.5127 51.2938 56.5137 51.2885L56.6029 50.7139L56.6907 50.7213C56.7353 50.7254 56.7541 50.7499 56.7471 50.7948L56.651 51.4214C56.6489 51.4344 56.6414 51.4416 56.6287 51.443L55.2875 51.5865C55.2687 51.5886 55.2511 51.5971 55.2378 51.6109C55.2245 51.6246 55.2162 51.6426 55.2143 51.6618L55.1617 52.1921Z" fill="#2A4BFB"></path>
<path d="M53.0703 51.4417C53.1391 51.6327 53.1635 51.8294 53.1435 52.0316C53.1207 52.2608 53.0365 52.452 52.8908 52.6052C52.761 52.7418 52.6152 52.8414 52.4535 52.9039C52.4082 52.9214 52.4093 52.9356 52.4567 52.9465C52.5224 52.9614 52.5935 52.9887 52.6699 53.0282C52.7851 53.0978 52.8739 53.1893 52.9361 53.3028C52.9682 53.3986 52.9884 53.4841 52.9968 53.5592C53.0537 54.0595 52.9014 54.4322 52.54 54.6773C52.4215 54.7575 52.2678 54.8274 52.079 54.8868C51.9122 54.9394 51.7463 54.9746 51.5814 54.9926C51.0452 55.0507 50.5097 55.1083 49.975 55.1656L49.8394 55.1798C49.8232 55.1815 49.8163 55.174 49.8189 55.1574L50.4234 51.2261C50.4238 51.2233 50.4251 51.2208 50.4272 51.2188C50.4292 51.2169 50.4318 51.2157 50.4346 51.2154C50.8139 51.1716 51.208 51.1298 51.6169 51.09C51.7265 51.0794 51.8479 51.0729 51.981 51.0705C52.2096 51.0666 52.4452 51.0723 52.6713 51.1408C52.8337 51.1898 52.9667 51.2901 53.0703 51.4417ZM51.4427 52.6677C51.5581 52.6661 51.6658 52.6449 51.7657 52.6041C51.9104 52.5452 52.0083 52.4421 52.0594 52.2948C52.1189 52.1241 52.1088 51.9615 52.0291 51.8071C51.9585 51.7368 51.8775 51.7003 51.7862 51.6977C51.7022 51.6954 51.5884 51.7053 51.4451 51.7276C51.433 51.7295 51.4261 51.7366 51.4242 51.7489L51.2834 52.6638C51.2818 52.6752 51.2867 52.6813 51.2981 52.6823C51.3492 52.6863 51.3974 52.6814 51.4427 52.6677ZM51.1772 54.369C51.3135 54.3619 51.4085 54.3484 51.4622 54.3285C51.875 54.1758 52.0016 53.8732 51.842 53.4207C51.7507 53.329 51.6452 53.2852 51.5256 53.2893C51.4162 53.293 51.3058 53.3033 51.1946 53.3202C51.1844 53.3216 51.1784 53.3275 51.1768 53.3379L51.0183 54.369C51.0179 54.3712 51.0181 54.3735 51.0188 54.3757C51.0194 54.3778 51.0206 54.3798 51.0222 54.3814C51.0237 54.383 51.0256 54.3843 51.0277 54.385C51.0298 54.3857 51.0321 54.386 51.0343 54.3857L51.1772 54.369Z" fill="white"></path>
<path d="M57.8106 51.3426L57.0705 51.4233C57.0666 51.4237 57.0627 51.423 57.0592 51.4215C57.0556 51.4199 57.0524 51.4175 57.05 51.4144C57.0476 51.4113 57.0459 51.4076 57.0453 51.4037C57.0446 51.3998 57.0449 51.3958 57.0461 51.392C57.0578 51.3574 57.0632 51.3184 57.0625 51.2748L57.8103 51.1938C57.8268 51.1922 57.8336 51.1996 57.8309 51.2162L57.8106 51.3426Z" fill="#2A4BFB"></path>
<path d="M61.595 51.2449L61.6322 52.4812C61.6323 52.4846 61.6312 52.4879 61.629 52.4905C61.6268 52.4931 61.6237 52.4947 61.6204 52.4951L61.1562 52.5448C61.2566 52.2242 61.3554 51.906 61.4528 51.5901C61.4532 51.5884 61.4636 51.5478 61.4838 51.4683C61.5047 51.3859 61.5418 51.3114 61.595 51.2449Z" fill="#2A4BFB"></path>
<path d="M52.6705 53.0282C52.5941 52.9886 52.523 52.9614 52.4572 52.9465C52.4099 52.9356 52.4088 52.9214 52.4541 52.9039C52.6158 52.8414 52.7616 52.7418 52.8914 52.6052C53.0371 52.452 53.1213 52.2608 53.144 52.0316C53.164 51.8294 53.1396 51.6327 53.0709 51.4417C53.2688 51.6853 53.3328 51.9666 53.2629 52.2855C53.241 52.385 53.2071 52.4764 53.1611 52.5597C53.1095 52.6525 53.0489 52.7298 52.9792 52.7916C52.9363 52.8298 52.8333 52.9086 52.6705 53.0282Z" fill="#2A4BFB"></path>
<path d="M52.0292 51.8072L51.572 51.8516C51.5604 51.8528 51.5538 51.8593 51.5522 51.8712L51.4428 52.6678C51.3975 52.6816 51.3493 52.6864 51.2981 52.6824C51.2868 52.6814 51.2819 52.6753 51.2835 52.6639L51.4243 51.749C51.4261 51.7367 51.4331 51.7296 51.4452 51.7277C51.5885 51.7054 51.7022 51.6955 51.7863 51.6979C51.8776 51.7005 51.9586 51.7369 52.0292 51.8072Z" fill="#2A4BFB"></path>
<path d="M51.4424 52.6677L51.5518 51.8711C51.5534 51.8592 51.56 51.8527 51.5717 51.8515L52.0288 51.8071C52.1085 51.9615 52.1186 52.1241 52.0591 52.2948C52.008 52.4421 51.9101 52.5452 51.7654 52.6041C51.6655 52.6449 51.5578 52.666 51.4424 52.6677Z" fill="#2A4BFB"></path>
<path d="M54.8805 53.8799L54.7443 53.8937C54.7422 53.8939 54.7402 53.8936 54.7382 53.8929C54.7363 53.8922 54.7345 53.891 54.7331 53.8895C54.7317 53.888 54.7307 53.8862 54.7301 53.8842C54.7295 53.8822 54.7293 53.8801 54.7297 53.8781L54.8663 52.9891C54.8681 52.9778 54.8746 52.9715 54.8858 52.9703L56.205 52.8289C56.221 52.8273 56.2303 52.8184 56.2329 52.8023L56.3238 52.2237L56.3869 52.2298C56.3923 52.2303 56.3977 52.2297 56.4028 52.2279C56.4079 52.2261 56.4126 52.2233 56.4165 52.2195C56.4298 52.2065 56.4436 52.2018 56.458 52.2056C56.4717 52.2092 56.4775 52.2181 56.4754 52.2323L56.3688 52.9248C56.3672 52.9355 56.3621 52.9454 56.3543 52.9529C56.3466 52.9604 56.3366 52.9651 56.3259 52.9664L55.0314 53.1049C55.0227 53.1058 55.0146 53.1096 55.0083 53.1158C55.002 53.1219 54.9979 53.1299 54.9966 53.1387L54.8805 53.8799Z" fill="#2A4BFB"></path>
<path d="M61.658 53.3176L60.913 53.3932C60.9052 53.3941 60.8978 53.3972 60.8916 53.4022C60.8854 53.4071 60.8808 53.4137 60.8782 53.4213C60.8108 53.6157 60.7475 53.8092 60.6883 54.002C60.6857 54.01 60.6827 54.0283 60.6792 54.0567C60.675 54.0882 60.6678 54.1062 60.6576 54.1107C60.6451 54.1161 60.643 54.1243 60.6514 54.1352C60.6576 54.1435 60.6555 54.1539 60.6451 54.1664C60.6404 54.1716 60.6327 54.1749 60.6217 54.1764C60.2064 54.2232 59.8426 54.2609 59.5304 54.2893C59.5256 54.2897 59.5209 54.2887 59.5167 54.2864C59.5125 54.2841 59.5091 54.2806 59.5068 54.2763C59.5046 54.2721 59.5036 54.2672 59.504 54.2624C59.5044 54.2576 59.5062 54.253 59.5091 54.2492C59.5324 54.2193 59.5451 54.1831 59.5475 54.1405L60.4803 54.0418C60.486 54.0411 60.4915 54.0388 60.496 54.035C60.5006 54.0312 60.5039 54.0262 60.5057 54.0204L60.7426 53.2746C60.7459 53.2646 60.7525 53.2592 60.7625 53.2583L61.6298 53.1652C61.6414 53.164 61.6477 53.1693 61.6486 53.1812L61.658 53.3176Z" fill="#2A4BFB"></path>
<path d="M51.8425 53.4207C51.6692 53.4072 51.5012 53.4192 51.3386 53.4566C51.3299 53.4586 51.322 53.4632 51.3159 53.4699C51.3098 53.4765 51.3058 53.4849 51.3045 53.4939L51.1776 54.369L51.0348 54.3857C51.0326 54.386 51.0303 54.3858 51.0282 54.3851C51.0261 54.3843 51.0242 54.3831 51.0226 54.3815C51.0211 54.3799 51.0199 54.3779 51.0192 54.3757C51.0186 54.3736 51.0184 54.3713 51.0187 54.369L51.1773 53.338C51.1789 53.3276 51.1848 53.3216 51.195 53.3202C51.3063 53.3034 51.4167 53.2931 51.5261 53.2893C51.6457 53.2853 51.7512 53.3291 51.8425 53.4207Z" fill="#2A4BFB"></path>
<path d="M49.9752 55.1656C50.5099 55.1083 51.0454 55.0506 51.5816 54.9926C51.7465 54.9746 51.9124 54.9394 52.0791 54.8868C52.268 54.8274 52.4217 54.7575 52.5402 54.6772C52.9016 54.4322 53.0539 54.0595 52.997 53.5592C52.9886 53.4841 52.9684 53.3986 52.9363 53.3027C53.0416 53.3797 53.1042 53.4901 53.1242 53.6341C53.1813 54.0443 53.1161 54.4368 52.8011 54.7163C52.7607 54.7521 52.7031 54.792 52.6283 54.836L52.507 54.9074C52.5057 54.9154 52.4635 54.9352 52.3806 54.9667C52.1648 55.0486 51.9381 55.1025 51.7007 55.1283C50.719 55.2353 50.2056 55.2897 50.1606 55.2913C50.1055 55.2935 50.0516 55.2971 49.9989 55.3023C49.9945 55.3028 49.9901 55.3023 49.986 55.301C49.9818 55.2997 49.9779 55.2976 49.9745 55.2948C49.9711 55.2919 49.9684 55.2884 49.9663 55.2845C49.9643 55.2805 49.963 55.2762 49.9626 55.2718C49.9601 55.2417 49.9643 55.2063 49.9752 55.1656Z" fill="#2A4BFB"></path>
<path d="M51.8426 53.4207C52.0022 53.8731 51.8756 54.1757 51.4628 54.3285C51.4091 54.3484 51.3141 54.3618 51.1777 54.369L51.3046 53.4938C51.3059 53.4848 51.3099 53.4764 51.316 53.4698C51.3221 53.4631 51.33 53.4585 51.3387 53.4565C51.5013 53.4191 51.6693 53.4072 51.8426 53.4207Z" fill="#2A4BFB"></path>
<path d="M53.6511 54.7729L56.0568 54.5161C56.0627 54.5155 56.0682 54.5129 56.0725 54.5088C56.0768 54.5047 56.0796 54.4993 56.0805 54.4934L56.1736 53.8757L56.2889 53.8839C56.294 53.8843 56.2989 53.8857 56.3034 53.8881C56.308 53.8906 56.3119 53.8939 56.3151 53.8979C56.3183 53.902 56.3206 53.9066 56.3219 53.9116C56.3232 53.9166 56.3235 53.9218 56.3227 53.9269L56.2157 54.6216C56.2145 54.6292 56.2109 54.6362 56.2055 54.6416C56.2 54.6469 56.1929 54.6502 56.1854 54.6511L53.6734 54.9199C53.6692 54.9204 53.665 54.9199 53.661 54.9186C53.657 54.9172 53.6533 54.9149 53.6503 54.9119C53.6473 54.9089 53.6449 54.9053 53.6434 54.9013C53.642 54.8973 53.6414 54.893 53.6417 54.8887L53.6511 54.7729Z" fill="#2A4BFB"></path>
<path d="M56.1133 56.6343L58.4919 59.983C58.4954 59.9879 58.4975 59.9942 58.4946 59.9995V59.9995C58.4931 60.0023 58.491 60.0047 58.4886 60.0067C58.4862 60.0086 58.4834 60.0101 58.4804 60.0109C58.4774 60.0117 58.4743 60.012 58.4712 60.0116L41.5068 58.2329C41.4921 58.2274 41.5012 58.2221 41.534 58.2169C41.7256 58.1861 41.918 58.1602 42.111 58.1391C46.5542 57.6559 49.6324 57.3245 51.3454 57.145C51.347 57.1448 51.3974 57.1409 51.4966 57.1333C51.5684 57.1276 51.6489 57.112 51.7112 57.1052C52.601 57.0082 54.0118 56.8582 55.9439 56.6552C55.9941 56.65 56.0505 56.643 56.1133 56.6343Z" fill="#1B30A1"></path>
</svg><style>@media (prefers-color-scheme: light) { :root { filter: none; } }
@media (prefers-color-scheme: dark) { :root { filter: none; } }
</style></svg>